<svg xmlns="http://www.w3.org/2000/svg" xmlns:xlink="http://www.w3.org/1999/xlink" width="2000" zoomAndPan="magnify" viewBox="0 0 1500 1499.999933" height="2000" preserveAspectRatio="xMidYMid meet" version="1.0"><defs><g/><clipPath id="e7e90b63e7"><rect x="0" width="444" y="0" height="396"/></clipPath><clipPath id="51b1bdb82b"><path d="M 609 716 L 725 716 L 725 805 L 609 805 Z M 609 716 " clip-rule="nonzero"/></clipPath><clipPath id="af6b530678"><path d="M 606.84375 722.132812 L 721.320312 713.746094 L 727.597656 799.4375 L 613.121094 807.820312 Z M 606.84375 722.132812 " clip-rule="nonzero"/></clipPath><clipPath id="5873274b65"><path d="M 649.6875 718.992188 L 678.371094 716.890625 C 702.03125 715.160156 722.621094 732.9375 724.355469 756.597656 C 726.085938 780.261719 708.308594 800.847656 684.648438 802.582031 L 655.964844 804.683594 C 632.300781 806.417969 611.714844 788.640625 609.980469 764.976562 C 608.25 741.3125 626.027344 720.726562 649.6875 718.992188 Z M 649.6875 718.992188 " clip-rule="nonzero"/></clipPath><clipPath id="727f288acd"><path d="M 0 0 L 116 0 L 116 89 L 0 89 Z M 0 0 " clip-rule="nonzero"/></clipPath><clipPath id="c1827a3975"><path d="M -2.15625 6.132812 L 112.320312 -2.253906 L 118.597656 83.4375 L 4.121094 91.820312 Z M -2.15625 6.132812 " clip-rule="nonzero"/></clipPath><clipPath id="c907712980"><path d="M 40.6875 2.992188 L 69.371094 0.890625 C 93.03125 -0.839844 113.621094 16.9375 115.355469 40.597656 C 117.085938 64.261719 99.308594 84.847656 75.648438 86.582031 L 46.964844 88.683594 C 23.300781 90.417969 2.714844 72.640625 0.980469 48.976562 C -0.75 25.3125 17.027344 4.726562 40.6875 2.992188 Z M 40.6875 2.992188 " clip-rule="nonzero"/></clipPath><clipPath id="c4aed13897"><rect x="0" width="116" y="0" height="89"/></clipPath><clipPath id="85cc1b9843"><path d="M 609 716 L 725 716 L 725 805 L 609 805 Z M 609 716 " clip-rule="nonzero"/></clipPath><clipPath id="614d37b8cd"><path d="M 606.84375 722.132812 L 721.285156 713.75 L 727.589844 799.769531 L 613.144531 808.152344 Z M 606.84375 722.132812 " clip-rule="nonzero"/></clipPath><clipPath id="43e6153895"><path d="M 606.84375 722.132812 L 727.386719 713.300781 L 734.179688 806.027344 L 613.636719 814.855469 Z M 606.84375 722.132812 " clip-rule="nonzero"/></clipPath><clipPath id="a454e2cea0"><path d="M 649.683594 718.992188 L 678.363281 716.894531 C 702.023438 715.160156 722.609375 732.933594 724.34375 756.59375 C 726.074219 780.253906 708.300781 800.839844 684.640625 802.574219 L 655.960938 804.675781 C 632.300781 806.40625 611.714844 788.632812 609.980469 764.972656 C 608.25 741.3125 626.023438 720.726562 649.683594 718.992188 Z M 649.683594 718.992188 " clip-rule="nonzero"/></clipPath><clipPath id="680cd75440"><rect x="0" width="47" y="0" height="77"/></clipPath></defs><g fill="#ffcc00" fill-opacity="1"><g transform="translate(680.036687, 852.867747)"><g><path d="M 123.328125 -116.921875 C 123.328125 -108.378906 121.269531 -100.671875 117.15625 -93.796875 C 113.039062 -86.921875 107.347656 -81.546875 100.078125 -77.671875 C 92.804688 -73.796875 84.503906 -71.859375 75.171875 -71.859375 C 70.273438 -71.859375 65.8125 -72.253906 61.78125 -73.046875 C 57.75 -73.835938 53.359375 -75.101562 48.609375 -76.84375 L 48.609375 -24.1875 C 48.609375 -18.175781 49.238281 -13.75 50.5 -10.90625 C 51.769531 -8.0625 53.867188 -6.203125 56.796875 -5.328125 C 59.722656 -4.460938 64.113281 -4.03125 69.96875 -4.03125 L 69.96875 0 L 5.6875 0 L 5.6875 -4.03125 C 11.539062 -4.1875 15.8125 -4.660156 18.5 -5.453125 C 21.1875 -6.242188 23.160156 -8.0625 24.421875 -10.90625 C 25.691406 -13.75 26.328125 -18.175781 26.328125 -24.1875 L 26.328125 -137.546875 C 26.328125 -143.554688 25.613281 -147.984375 24.1875 -150.828125 C 22.769531 -153.671875 20.675781 -155.523438 17.90625 -156.390625 C 15.132812 -157.265625 11.0625 -157.703125 5.6875 -157.703125 L 5.6875 -161.734375 L 70.203125 -161.734375 C 79.679688 -161.734375 88.453125 -159.953125 96.515625 -156.390625 C 104.585938 -152.835938 111.070312 -147.703125 115.96875 -140.984375 C 120.875 -134.265625 123.328125 -126.242188 123.328125 -116.921875 Z M 48.609375 -150.828125 L 48.609375 -85.140625 C 52.566406 -83.554688 55.726562 -82.488281 58.09375 -81.9375 C 60.46875 -81.382812 62.921875 -81.109375 65.453125 -81.109375 C 74.785156 -81.109375 82.335938 -84.191406 88.109375 -90.359375 C 93.878906 -96.523438 96.765625 -104.664062 96.765625 -114.78125 C 96.765625 -125.375 93.878906 -134.460938 88.109375 -142.046875 C 82.335938 -149.640625 73.757812 -153.4375 62.375 -153.4375 C 57.3125 -153.4375 52.722656 -152.566406 48.609375 -150.828125 Z M 48.609375 -150.828125 "/></g></g></g><g fill="#ffcc00" fill-opacity="1"><g transform="translate(796.717844, 852.867747)"><g><path d="M 118.8125 -121.1875 C 118.8125 -111.070312 115.332031 -102.21875 108.375 -94.625 C 101.425781 -87.03125 91.863281 -82.050781 79.6875 -79.6875 L 118.109375 -17.078125 C 121.109375 -12.015625 123.789062 -8.570312 126.15625 -6.75 C 128.53125 -4.9375 131.457031 -4.03125 134.9375 -4.03125 L 136.359375 -4.03125 L 136.359375 0 L 105.296875 0 L 58.34375 -76.84375 L 47.4375 -76.84375 L 47.4375 -24.1875 C 47.4375 -18.019531 48.066406 -13.550781 49.328125 -10.78125 C 50.585938 -8.019531 52.601562 -6.203125 55.375 -5.328125 C 58.144531 -4.460938 62.453125 -4.03125 68.296875 -4.03125 L 68.296875 0 L 4.03125 0 L 4.03125 -4.03125 C 9.882812 -4.03125 14.234375 -4.460938 17.078125 -5.328125 C 19.921875 -6.203125 21.972656 -8.0625 23.234375 -10.90625 C 24.503906 -13.75 25.140625 -18.175781 25.140625 -24.1875 L 25.140625 -137.3125 C 25.140625 -143.476562 24.46875 -147.984375 23.125 -150.828125 C 21.78125 -153.671875 19.679688 -155.523438 16.828125 -156.390625 C 13.984375 -157.265625 9.71875 -157.703125 4.03125 -157.703125 L 4.03125 -161.734375 L 71.390625 -161.734375 C 80.242188 -161.734375 88.304688 -159.992188 95.578125 -156.515625 C 102.847656 -153.046875 108.535156 -148.226562 112.640625 -142.0625 C 116.753906 -135.894531 118.8125 -128.9375 118.8125 -121.1875 Z M 47.4375 -150.125 L 47.4375 -84.421875 L 55.25 -84.421875 C 67.90625 -84.421875 77.234375 -87.820312 83.234375 -94.625 C 89.242188 -101.425781 92.25 -109.488281 92.25 -118.8125 C 92.25 -128.769531 89.5625 -137.03125 84.1875 -143.59375 C 78.8125 -150.15625 71.539062 -153.4375 62.375 -153.4375 C 57 -153.4375 52.019531 -152.332031 47.4375 -150.125 Z M 47.4375 -150.125 "/></g></g></g><g fill="#ffcc00" fill-opacity="1"><g transform="translate(921.462325, 852.867747)"><g><path d="M 70.4375 -165.296875 C 84.1875 -165.296875 95.882812 -161.300781 105.53125 -153.3125 C 115.175781 -145.332031 122.410156 -134.898438 127.234375 -122.015625 C 132.054688 -109.128906 134.46875 -95.414062 134.46875 -80.875 C 134.46875 -66.164062 132.054688 -52.40625 127.234375 -39.59375 C 122.410156 -26.789062 115.175781 -16.394531 105.53125 -8.40625 C 95.882812 -0.425781 84.1875 3.5625 70.4375 3.5625 C 57.15625 3.5625 45.691406 -0.269531 36.046875 -7.9375 C 26.398438 -15.613281 19.046875 -25.894531 13.984375 -38.78125 C 8.929688 -51.664062 6.40625 -65.695312 6.40625 -80.875 C 6.40625 -95.414062 8.816406 -109.128906 13.640625 -122.015625 C 18.460938 -134.898438 25.691406 -145.332031 35.328125 -153.3125 C 44.972656 -161.300781 56.675781 -165.296875 70.4375 -165.296875 Z M 32.96875 -80.875 C 32.96875 -54.15625 35.890625 -34.785156 41.734375 -22.765625 C 47.585938 -10.753906 57.15625 -4.75 70.4375 -4.75 C 84.351562 -4.75 94.078125 -11.148438 99.609375 -23.953125 C 105.140625 -36.753906 107.90625 -55.726562 107.90625 -80.875 C 107.90625 -108.0625 104.859375 -127.546875 98.765625 -139.328125 C 92.679688 -151.109375 83.160156 -157 70.203125 -157 C 59.285156 -157 51.097656 -153.003906 45.640625 -145.015625 C 40.191406 -137.035156 36.71875 -127.671875 35.21875 -116.921875 C 33.71875 -106.171875 32.96875 -94.15625 32.96875 -80.875 Z M 32.96875 -80.875 "/></g></g></g><g fill="#ffcc00" fill-opacity="1"><g transform="translate(1050.475612, 852.867747)"><g><path d="M 70.4375 -165.296875 C 84.1875 -165.296875 95.882812 -161.300781 105.53125 -153.3125 C 115.175781 -145.332031 122.410156 -134.898438 127.234375 -122.015625 C 132.054688 -109.128906 134.46875 -95.414062 134.46875 -80.875 C 134.46875 -66.164062 132.054688 -52.40625 127.234375 -39.59375 C 122.410156 -26.789062 115.175781 -16.394531 105.53125 -8.40625 C 95.882812 -0.425781 84.1875 3.5625 70.4375 3.5625 C 57.15625 3.5625 45.691406 -0.269531 36.046875 -7.9375 C 26.398438 -15.613281 19.046875 -25.894531 13.984375 -38.78125 C 8.929688 -51.664062 6.40625 -65.695312 6.40625 -80.875 C 6.40625 -95.414062 8.816406 -109.128906 13.640625 -122.015625 C 18.460938 -134.898438 25.691406 -145.332031 35.328125 -153.3125 C 44.972656 -161.300781 56.675781 -165.296875 70.4375 -165.296875 Z M 32.96875 -80.875 C 32.96875 -54.15625 35.890625 -34.785156 41.734375 -22.765625 C 47.585938 -10.753906 57.15625 -4.75 70.4375 -4.75 C 84.351562 -4.75 94.078125 -11.148438 99.609375 -23.953125 C 105.140625 -36.753906 107.90625 -55.726562 107.90625 -80.875 C 107.90625 -108.0625 104.859375 -127.546875 98.765625 -139.328125 C 92.679688 -151.109375 83.160156 -157 70.203125 -157 C 59.285156 -157 51.097656 -153.003906 45.640625 -145.015625 C 40.191406 -137.035156 36.71875 -127.671875 35.21875 -116.921875 C 33.71875 -106.171875 32.96875 -94.15625 32.96875 -80.875 Z M 32.96875 -80.875 "/></g></g></g><g fill="#ffcc00" fill-opacity="1"><g transform="translate(1179.488898, 852.867747)"><g><path d="M 123.328125 -127.109375 L 119.046875 -127.109375 C 118.734375 -135.335938 116.484375 -141.664062 112.296875 -146.09375 C 108.109375 -150.519531 102.21875 -152.734375 94.625 -152.734375 L 47.90625 -152.734375 L 47.90625 -89.40625 L 75.421875 -89.40625 C 83.328125 -89.40625 88.898438 -91.066406 92.140625 -94.390625 C 95.378906 -97.710938 97 -102.769531 97 -109.5625 L 97 -112.40625 L 101.03125 -112.40625 L 101.03125 -57.15625 L 97 -57.15625 L 97 -59.28125 C 97 -66.40625 95.734375 -71.703125 93.203125 -75.171875 C 90.671875 -78.648438 85.847656 -80.390625 78.734375 -80.390625 L 47.90625 -80.390625 L 47.90625 -24.1875 C 47.90625 -18.175781 48.578125 -13.75 49.921875 -10.90625 C 51.265625 -8.0625 53.398438 -6.203125 56.328125 -5.328125 C 59.253906 -4.460938 63.71875 -4.03125 69.71875 -4.03125 L 69.71875 0 L 5.21875 0 L 5.21875 -4.03125 C 10.75 -4.03125 14.9375 -4.503906 17.78125 -5.453125 C 20.632812 -6.398438 22.648438 -8.296875 23.828125 -11.140625 C 25.015625 -13.992188 25.609375 -18.34375 25.609375 -24.1875 L 25.609375 -137.78125 C 25.609375 -143.945312 25.054688 -148.375 23.953125 -151.0625 C 22.847656 -153.75 20.953125 -155.488281 18.265625 -156.28125 C 15.578125 -157.070312 11.226562 -157.546875 5.21875 -157.703125 L 5.21875 -161.734375 L 122.140625 -161.734375 Z M 123.328125 -127.109375 "/></g></g></g><g transform="matrix(1, 0, 0, 1, 197, 540)"><g clip-path="url(#e7e90b63e7)"><g fill="#ffffff" fill-opacity="1"><g transform="translate(0.89862, 310.449789)"><g><path d="M 8.820312 57.78125 L 27.371094 57.78125 C 30.105469 57.78125 32.539062 55.347656 32.539062 52.609375 L 32.539062 5.167969 C 32.539062 2.433594 34.972656 0 37.707031 0 L 85.453125 0 C 88.191406 0 90.621094 -2.433594 90.621094 -5.167969 L 90.621094 -23.71875 C 90.621094 -26.457031 93.054688 -28.890625 95.792969 -28.890625 L 114.34375 -28.890625 C 117.078125 -28.890625 119.511719 -31.324219 119.511719 -34.058594 L 119.511719 -110.695312 C 119.511719 -113.429688 117.078125 -115.863281 114.34375 -115.863281 L 95.792969 -115.863281 C 93.054688 -115.863281 90.621094 -118.296875 90.621094 -121.03125 L 90.621094 -139.582031 C 90.621094 -142.320312 88.191406 -144.753906 85.453125 -144.753906 L 37.707031 -144.753906 C 34.972656 -144.753906 32.539062 -142.320312 32.539062 -139.582031 L 32.539062 -121.03125 C 32.539062 -118.296875 30.105469 -115.863281 27.371094 -115.863281 L 8.820312 -115.863281 C 6.082031 -115.863281 3.648438 -113.429688 3.648438 -110.695312 L 3.648438 52.609375 C 3.648438 55.347656 6.082031 57.78125 8.820312 57.78125 Z M 32.539062 -34.058594 L 32.539062 -110.695312 C 32.539062 -113.429688 34.972656 -115.863281 37.707031 -115.863281 L 85.453125 -115.863281 C 88.191406 -115.863281 90.621094 -113.429688 90.621094 -110.695312 L 90.621094 -34.058594 C 90.621094 -31.324219 88.191406 -28.890625 85.453125 -28.890625 L 37.707031 -28.890625 C 34.972656 -28.890625 32.539062 -31.324219 32.539062 -34.058594 Z M 32.539062 -34.058594 "/></g></g></g><g fill="#ffffff" fill-opacity="1"><g transform="translate(124.060218, 310.449789)"><g><path d="M 8.820312 0 L 27.371094 0 C 30.105469 0 32.539062 -2.433594 32.539062 -5.167969 L 32.539062 -139.582031 C 32.539062 -142.320312 30.105469 -144.753906 27.371094 -144.753906 L 8.820312 -144.753906 C 6.082031 -144.753906 3.648438 -142.320312 3.648438 -139.582031 L 3.648438 -5.167969 C 3.648438 -2.433594 6.082031 0 8.820312 0 Z M 8.820312 -173.644531 L 27.371094 -173.644531 C 30.105469 -173.644531 32.539062 -176.074219 32.539062 -178.8125 L 32.539062 -197.667969 C 32.539062 -200.402344 30.105469 -202.835938 27.371094 -202.835938 L 8.820312 -202.835938 C 6.082031 -202.835938 3.648438 -200.402344 3.648438 -197.667969 L 3.648438 -178.8125 C 3.648438 -176.074219 6.082031 -173.644531 8.820312 -173.644531 Z M 8.820312 -173.644531 "/></g></g></g><g fill="#ffffff" fill-opacity="1"><g transform="translate(160.248431, 310.449789)"><g><path d="M 8.820312 0 L 27.371094 0 C 30.105469 0 32.539062 -2.433594 32.539062 -5.167969 L 32.539062 -52.609375 C 32.539062 -55.347656 34.972656 -57.78125 37.707031 -57.78125 L 85.453125 -57.78125 C 88.191406 -57.78125 90.621094 -55.347656 90.621094 -52.609375 L 90.621094 -5.167969 C 90.621094 -2.433594 93.054688 0 95.792969 0 L 114.34375 0 C 117.078125 0 119.511719 -2.433594 119.511719 -5.167969 L 119.511719 -52.609375 C 119.511719 -55.347656 117.078125 -57.78125 114.34375 -57.78125 L 95.792969 -57.78125 C 93.054688 -57.78125 90.621094 -60.210938 90.621094 -62.949219 L 90.621094 -81.804688 C 90.621094 -84.539062 93.054688 -86.972656 95.792969 -86.972656 L 114.34375 -86.972656 C 117.078125 -86.972656 119.511719 -89.40625 119.511719 -92.144531 L 119.511719 -139.582031 C 119.511719 -142.320312 117.078125 -144.753906 114.34375 -144.753906 L 95.792969 -144.753906 C 93.054688 -144.753906 90.621094 -142.320312 90.621094 -139.582031 L 90.621094 -92.144531 C 90.621094 -89.40625 88.191406 -86.972656 85.453125 -86.972656 L 37.707031 -86.972656 C 34.972656 -86.972656 32.539062 -89.40625 32.539062 -92.144531 L 32.539062 -139.582031 C 32.539062 -142.320312 30.105469 -144.753906 27.371094 -144.753906 L 8.820312 -144.753906 C 6.082031 -144.753906 3.648438 -142.320312 3.648438 -139.582031 L 3.648438 -92.144531 C 3.648438 -89.40625 6.082031 -86.972656 8.820312 -86.972656 L 27.371094 -86.972656 C 30.105469 -86.972656 32.539062 -84.539062 32.539062 -81.804688 L 32.539062 -62.949219 C 32.539062 -60.210938 30.105469 -57.78125 27.371094 -57.78125 L 8.820312 -57.78125 C 6.082031 -57.78125 3.648438 -55.347656 3.648438 -52.609375 L 3.648438 -5.167969 C 3.648438 -2.433594 6.082031 0 8.820312 0 Z M 8.820312 0 "/></g></g></g><g fill="#ffffff" fill-opacity="1"><g transform="translate(283.410029, 310.449789)"><g><path d="M 37.707031 0 L 114.34375 0 C 117.078125 0 119.511719 -2.433594 119.511719 -5.167969 L 119.511719 -23.71875 C 119.511719 -26.457031 117.078125 -28.890625 114.34375 -28.890625 L 37.707031 -28.890625 C 34.972656 -28.890625 32.539062 -31.324219 32.539062 -34.058594 L 32.539062 -52.609375 C 32.539062 -55.347656 34.972656 -57.78125 37.707031 -57.78125 L 114.34375 -57.78125 C 117.078125 -57.78125 119.511719 -60.210938 119.511719 -62.949219 L 119.511719 -110.695312 C 119.511719 -113.429688 117.078125 -115.863281 114.34375 -115.863281 L 95.792969 -115.863281 C 93.054688 -115.863281 90.621094 -118.296875 90.621094 -121.03125 L 90.621094 -139.582031 C 90.621094 -142.320312 88.191406 -144.753906 85.453125 -144.753906 L 37.707031 -144.753906 C 34.972656 -144.753906 32.539062 -142.320312 32.539062 -139.582031 L 32.539062 -121.03125 C 32.539062 -118.296875 30.105469 -115.863281 27.371094 -115.863281 L 8.820312 -115.863281 C 6.082031 -115.863281 3.648438 -113.429688 3.648438 -110.695312 L 3.648438 -34.058594 C 3.648438 -31.324219 6.082031 -28.890625 8.820312 -28.890625 L 27.371094 -28.890625 C 30.105469 -28.890625 32.539062 -26.457031 32.539062 -23.71875 L 32.539062 -5.167969 C 32.539062 -2.433594 34.972656 0 37.707031 0 Z M 32.539062 -92.144531 L 32.539062 -110.695312 C 32.539062 -113.429688 34.972656 -115.863281 37.707031 -115.863281 L 85.453125 -115.863281 C 88.191406 -115.863281 90.621094 -113.429688 90.621094 -110.695312 L 90.621094 -92.144531 C 90.621094 -89.40625 88.191406 -86.972656 85.453125 -86.972656 L 37.707031 -86.972656 C 34.972656 -86.972656 32.539062 -89.40625 32.539062 -92.144531 Z M 32.539062 -92.144531 "/></g></g></g><g fill="#ffffff" fill-opacity="1"><g transform="translate(406.571627, 310.449789)"><g><path d="M 8.820312 0 L 27.371094 0 C 30.105469 0 32.539062 -2.433594 32.539062 -5.167969 L 32.539062 -197.667969 C 32.539062 -200.402344 30.105469 -202.835938 27.371094 -202.835938 L 8.820312 -202.835938 C 6.082031 -202.835938 3.648438 -200.402344 3.648438 -197.667969 L 3.648438 -5.167969 C 3.648438 -2.433594 6.082031 0 8.820312 0 Z M 8.820312 0 "/></g></g></g></g></g><g clip-path="url(#51b1bdb82b)"><g clip-path="url(#af6b530678)"><g clip-path="url(#5873274b65)"><g transform="matrix(1, 0, 0, 1, 609, 716)"><g clip-path="url(#c4aed13897)"><g clip-path="url(#727f288acd)"><g clip-path="url(#c1827a3975)"><g clip-path="url(#c907712980)"><path fill="#ffffff" d="M -2.15625 6.132812 L 112.320312 -2.253906 L 118.597656 83.4375 L 4.121094 91.820312 Z M -2.15625 6.132812 " fill-opacity="1" fill-rule="nonzero"/></g></g></g></g></g></g></g></g><g clip-path="url(#85cc1b9843)"><g clip-path="url(#614d37b8cd)"><g clip-path="url(#43e6153895)"><g clip-path="url(#a454e2cea0)"><path stroke-linecap="butt" transform="matrix(0.747996, -0.0547942, 0.0547942, 0.747996, 606.844133, 722.132078)" fill="none" stroke-linejoin="miter" d="M 57.272503 -0.00225656 L 95.614235 0.00208736 C 127.245755 0.000549454 152.888977 25.640454 152.890515 57.271975 C 152.886858 88.903115 127.246953 114.546337 95.615433 114.547875 L 57.27332 114.548725 C 25.64218 114.545069 -0.00104127 88.905164 -0.00257917 57.273643 C 0.00107734 25.642503 25.640982 -0.000718652 57.272503 -0.00225656 Z M 57.272503 -0.00225656 " stroke="#000000" stroke-width="16" stroke-opacity="1" stroke-miterlimit="4"/></g></g></g></g><g transform="matrix(1, 0, 0, 1, 644, 723)"><g clip-path="url(#680cd75440)"><g fill="#000000" fill-opacity="1"><g transform="translate(0.48406, 54.549064)"><g><path d="M 21.53125 -53.234375 C 24.132812 -53.234375 26.25 -52.414062 27.875 -50.78125 C 29.507812 -49.15625 30.328125 -46.992188 30.328125 -44.296875 C 30.328125 -41.648438 29.5625 -39.242188 28.03125 -37.078125 C 26.5 -34.910156 24.054688 -32.707031 20.703125 -30.46875 C 21.515625 -28.03125 22.566406 -25.382812 23.859375 -22.53125 C 25.160156 -19.675781 26.472656 -17.101562 27.796875 -14.8125 C 31.003906 -20.769531 32.609375 -25.378906 32.609375 -28.640625 C 32.609375 -29.804688 32.378906 -30.695312 31.921875 -31.3125 C 31.460938 -31.925781 30.75 -32.285156 29.78125 -32.390625 L 29.78125 -33.6875 L 42.078125 -33.6875 L 42.078125 -32.390625 C 40.910156 -32.285156 39.984375 -31.976562 39.296875 -31.46875 C 38.609375 -30.957031 38.019531 -30.269531 37.53125 -29.40625 C 37.050781 -28.539062 36.429688 -27.164062 35.671875 -25.28125 C 34.703125 -22.9375 33.757812 -20.796875 32.84375 -18.859375 C 31.925781 -16.929688 30.726562 -14.71875 29.25 -12.21875 C 30.832031 -9.414062 32.269531 -7.40625 33.5625 -6.1875 C 34.863281 -4.96875 36.175781 -4.359375 37.5 -4.359375 C 38.71875 -4.359375 39.75 -4.789062 40.59375 -5.65625 C 41.4375 -6.519531 42.1875 -7.921875 42.84375 -9.859375 L 44.140625 -9.46875 C 43.328125 -6.113281 42.101562 -3.503906 40.46875 -1.640625 C 38.84375 0.210938 36.960938 1.140625 34.828125 1.140625 C 32.992188 1.140625 31.25 0.503906 29.59375 -0.765625 C 27.9375 -2.035156 26.296875 -3.816406 24.671875 -6.109375 C 22.378906 -3.460938 20.289062 -1.59375 18.40625 -0.5 C 16.519531 0.59375 14.484375 1.140625 12.296875 1.140625 C 9.191406 1.140625 6.644531 -0.015625 4.65625 -2.328125 C 2.675781 -4.640625 1.6875 -7.628906 1.6875 -11.296875 C 1.6875 -14.660156 2.640625 -17.765625 4.546875 -20.609375 C 6.453125 -23.460938 9.492188 -26.191406 13.671875 -28.796875 C 12.753906 -31.285156 12.09375 -33.445312 11.6875 -35.28125 C 11.28125 -37.113281 11.078125 -39 11.078125 -40.9375 C 11.078125 -44.65625 12.039062 -47.632812 13.96875 -49.875 C 15.90625 -52.113281 18.425781 -53.234375 21.53125 -53.234375 Z M 17.265625 -44.21875 C 17.265625 -41.164062 18.101562 -37.453125 19.78125 -33.078125 C 22.019531 -34.648438 23.648438 -36.3125 24.671875 -38.0625 C 25.691406 -39.820312 26.203125 -41.925781 26.203125 -44.375 C 26.203125 -46.207031 25.816406 -47.695312 25.046875 -48.84375 C 24.285156 -49.988281 23.191406 -50.5625 21.765625 -50.5625 C 20.191406 -50.5625 19.046875 -49.921875 18.328125 -48.640625 C 17.617188 -47.367188 17.265625 -45.894531 17.265625 -44.21875 Z M 7.796875 -15.578125 C 7.796875 -13.691406 8.175781 -11.882812 8.9375 -10.15625 C 9.695312 -8.425781 10.710938 -7.015625 11.984375 -5.921875 C 13.265625 -4.828125 14.566406 -4.28125 15.890625 -4.28125 C 17.054688 -4.28125 18.273438 -4.632812 19.546875 -5.34375 C 20.828125 -6.0625 22.050781 -7.082031 23.21875 -8.40625 C 22.144531 -9.925781 20.71875 -12.546875 18.9375 -16.265625 C 17.15625 -19.984375 15.679688 -23.367188 14.515625 -26.421875 C 12.117188 -24.640625 10.398438 -22.945312 9.359375 -21.34375 C 8.316406 -19.738281 7.796875 -17.816406 7.796875 -15.578125 Z M 7.796875 -15.578125 "/></g></g></g></g></g></svg>